<svg width="22" height="14" viewBox="0 0 22 14" fill="none" xmlns="http://www.w3.org/2000/svg">
<path d="M9.05104 6.32897C9.50757 6.09517 9.85273 5.83477 10.0892 5.55337C10.51 5.04657 10.7177 4.37457 10.7177 3.54157C10.7177 2.73098 10.51 2.03798 10.0947 1.45698C9.40169 0.510577 8.22872 0.0261765 6.57034 0.000976562H6.10352e-05V13.6552H6.12618C6.81648 13.6552 7.45591 13.595 8.04721 13.4718C8.6385 13.3472 9.15004 13.119 9.5832 12.7858C9.96823 12.496 10.29 12.1362 10.5458 11.712C10.9501 11.0708 11.1522 10.3442 11.1522 9.53497C11.1522 8.75097 10.9748 8.08317 10.6228 7.53437C10.2666 6.98557 9.74409 6.58377 9.05104 6.32897ZM2.7104 2.37258H5.66964C6.32007 2.37258 6.85636 2.44398 7.27714 2.58538C7.76393 2.79118 8.00733 3.20977 8.00733 3.84817C8.00733 4.42077 7.82169 4.82118 7.45453 5.04657C7.08463 5.27197 6.60471 5.38537 6.01617 5.38537H2.7104V2.37258ZM7.3899 11.0456C7.06263 11.2066 6.60196 11.2864 6.01204 11.2864H2.7104V7.64497H6.05742C6.64047 7.64917 7.09425 7.72757 7.41878 7.87457C7.99633 8.14057 8.28372 8.62777 8.28372 9.34037C8.28372 10.1804 7.9867 10.746 7.3899 11.0456Z" fill="#29D882"/>
<path d="M19.8858 0.638184H14.0595V2.33778H19.8858V0.638184Z" fill="#29D882"/>
<path d="M21.9095 7.34543C21.7885 6.55443 21.5217 5.85862 21.1064 5.25802C20.6513 4.57762 20.0737 4.07922 19.371 3.76422C18.6711 3.44782 17.8832 3.28962 17.0058 3.29102C15.5331 3.29102 14.3368 3.76002 13.4113 4.69102C12.4886 5.62482 12.0266 6.96742 12.0266 8.71742C12.0266 10.5836 12.5367 11.9318 13.5626 12.7592C14.5843 13.588 15.7641 14.001 17.1035 14.001C18.7247 14.001 19.9857 13.5096 20.8864 12.5296C21.4626 11.9108 21.7885 11.3018 21.86 10.704H19.1758C19.0204 10.9994 18.8402 11.2304 18.634 11.3984C18.2599 11.7064 17.7732 11.8604 17.1764 11.8604C16.6084 11.8604 16.1272 11.733 15.7256 11.4796C15.0628 11.0736 14.7163 10.3624 14.6723 9.35022H21.9975C22.0085 8.47802 21.981 7.80743 21.9095 7.34543ZM14.7383 7.60722C14.8346 6.95062 15.0683 6.42982 15.4396 6.04482C15.8109 5.66122 16.3362 5.46802 17.0086 5.46662C17.6288 5.46662 18.1472 5.64722 18.5693 6.00982C18.986 6.37522 19.2211 6.90582 19.2693 7.60722H14.7383Z" fill="#29D882"/>
</svg>
