<svg width="207" height="43" viewBox="0 0 207 43" fill="none" xmlns="http://www.w3.org/2000/svg">
<path opacity="0.2" d="M43 20L59.7365 3.47013C61.684 1.5467 64.816 1.5467 66.7635 3.47013L79.9865 16.5299C81.934 18.4533 85.066 18.4533 87.0135 16.5299L100.236 3.47013C102.184 1.5467 105.316 1.5467 107.264 3.47013L120.486 16.5299C122.434 18.4533 125.566 18.4533 127.514 16.5299L140.736 3.47013C142.684 1.5467 145.816 1.5467 147.764 3.47013L160.986 16.5299C162.934 18.4533 166.066 18.4533 168.014 16.5299L181.236 3.47013C183.184 1.5467 186.316 1.5467 188.264 3.47013L205 20" stroke="#29D882" stroke-width="3" stroke-linecap="round" stroke-linejoin="bevel"/>
<path opacity="0.2" d="M2 41L18.7365 24.4701C20.684 22.5467 23.816 22.5467 25.7635 24.4701L38.9865 37.5299C40.934 39.4533 44.066 39.4533 46.0135 37.5299L59.2365 24.4701C61.184 22.5467 64.316 22.5467 66.2635 24.4701L79.4865 37.5299C81.434 39.4533 84.566 39.4533 86.5135 37.5299L99.7365 24.4701C101.684 22.5467 104.816 22.5467 106.764 24.4701L119.986 37.5299C121.934 39.4533 125.066 39.4533 127.014 37.5299L140.236 24.4701C142.184 22.5467 145.316 22.5467 147.264 24.4701L164 41" stroke="#29D882" stroke-width="3" stroke-linecap="round" stroke-linejoin="bevel"/>
</svg>
