<svg width="282" height="171" viewBox="0 0 282 171" fill="none" xmlns="http://www.w3.org/2000/svg">
<g opacity="0.35">
<path d="M123.73 168.055C123.73 166.966 124.607 166.089 125.696 166.089C126.785 166.089 127.662 166.966 127.662 168.055C127.662 169.144 126.785 170.02 125.696 170.02C124.614 170.013 123.737 169.136 123.73 168.055Z" fill="#29D882"/>
<path d="M123.73 3.57073C123.73 2.48179 124.607 1.60498 125.696 1.60498C126.785 1.60498 127.662 2.48179 127.662 3.57073C127.662 4.65968 126.785 5.53649 125.696 5.53649C124.614 5.52942 123.737 4.65261 123.73 3.57073Z" fill="#29D882"/>
<path d="M276.52 168.055C276.52 166.966 277.397 166.089 278.486 166.089C279.575 166.089 280.452 166.966 280.452 168.055C280.452 169.144 279.575 170.021 278.486 170.021C277.404 170.014 276.527 169.137 276.52 168.055Z" fill="#29D882"/>
<path d="M276.52 3.57122C276.52 2.48228 277.397 1.60546 278.486 1.60546C279.575 1.60546 280.452 2.48228 280.452 3.57122C280.452 4.66016 279.575 5.53698 278.486 5.53698C277.404 5.52991 276.527 4.65309 276.52 3.57122Z" fill="#29D882"/>
<path d="M93.1706 168.054C93.1706 166.965 94.0474 166.089 95.1364 166.089C96.2253 166.089 97.1021 166.965 97.1021 168.054C97.1021 169.143 96.2253 170.02 95.1364 170.02C94.0474 170.02 93.1777 169.136 93.1706 168.054Z" fill="#29D882"/>
<path d="M93.1706 3.57052C93.1706 2.48157 94.0474 1.60476 95.1364 1.60476C96.2253 1.60476 97.1021 2.48157 97.1021 3.57052C97.1021 4.65946 96.2253 5.53627 95.1364 5.53627C94.0474 5.53627 93.1777 4.65239 93.1706 3.57052Z" fill="#29D882"/>
<path d="M245.961 168.055C245.961 166.966 246.837 166.089 247.926 166.089C249.015 166.089 249.892 166.966 249.892 168.055C249.892 169.144 249.015 170.021 247.926 170.021C246.837 170.021 245.968 169.137 245.961 168.055Z" fill="#29D882"/>
<path d="M245.961 3.57101C245.961 2.48206 246.837 1.60525 247.926 1.60525C249.015 1.60525 249.892 2.48206 249.892 3.571C249.892 4.65995 249.015 5.53676 247.926 5.53676C246.837 5.53676 245.968 4.65288 245.961 3.57101Z" fill="#29D882"/>
<path d="M62.6084 168.08C62.6084 166.992 63.4852 166.115 64.5742 166.115C65.6631 166.115 66.5399 166.992 66.5399 168.08C66.5399 169.169 65.6631 170.046 64.5742 170.046C63.4923 170.039 62.6084 169.155 62.6084 168.08Z" fill="#29D882"/>
<path d="M62.6084 3.59661C62.6084 2.50767 63.4852 1.63086 64.5742 1.63086C65.6631 1.63086 66.5399 2.50767 66.5399 3.59661C66.5399 4.68556 65.6631 5.56237 64.5742 5.56237C63.4923 5.5553 62.6084 4.67141 62.6084 3.59661Z" fill="#29D882"/>
<path d="M215.398 168.081C215.398 166.992 216.275 166.115 217.364 166.115C218.453 166.115 219.33 166.992 219.33 168.081C219.33 169.17 218.453 170.047 217.364 170.047C216.282 170.04 215.398 169.156 215.398 168.081Z" fill="#29D882"/>
<path d="M215.398 3.5971C215.398 2.50816 216.275 1.63134 217.364 1.63134C218.453 1.63134 219.33 2.50816 219.33 3.5971C219.33 4.68604 218.453 5.56286 217.364 5.56286C216.282 5.55578 215.398 4.6719 215.398 3.5971Z" fill="#29D882"/>
<path d="M35.4111 169.398C36.1765 168.633 36.1765 167.392 35.4111 166.626C34.6457 165.861 33.4047 165.861 32.6392 166.626C31.8738 167.392 31.8738 168.633 32.6392 169.398C33.4047 170.164 34.6457 170.164 35.4111 169.398Z" fill="#29D882"/>
<path d="M35.4111 4.91425C36.1765 4.14883 36.1765 2.90782 35.4111 2.1424C34.6457 1.37697 33.4047 1.37696 32.6392 2.14239C31.8738 2.90782 31.8738 4.14883 32.6392 4.91425C33.4047 5.67968 34.6457 5.67968 35.4111 4.91425Z" fill="#29D882"/>
<path d="M188.201 169.399C188.966 168.633 188.966 167.392 188.201 166.627C187.436 165.861 186.195 165.861 185.429 166.627C184.664 167.392 184.664 168.633 185.429 169.399C186.195 170.164 187.436 170.164 188.201 169.399Z" fill="#29D882"/>
<path d="M188.201 4.91474C188.966 4.14932 188.966 2.90831 188.201 2.14289C187.436 1.37746 186.195 1.37745 185.429 2.14288C184.664 2.90831 184.664 4.14931 185.429 4.91474C186.195 5.68017 187.436 5.68017 188.201 4.91474Z" fill="#29D882"/>
<path d="M1.50506 168.05C1.50506 166.961 2.38187 166.084 3.47082 166.084C4.55976 166.084 5.43657 166.961 5.43657 168.05C5.43657 169.139 4.55976 170.016 3.47082 170.016C2.38187 170.016 1.49799 169.132 1.50506 168.05Z" fill="#29D882"/>
<path d="M1.50506 3.56592C1.50506 2.47697 2.38187 1.60016 3.47082 1.60016C4.55976 1.60016 5.43657 2.47697 5.43657 3.56592C5.43657 4.65486 4.55976 5.53167 3.47082 5.53167C2.38187 5.53167 1.49799 4.64779 1.50506 3.56592Z" fill="#29D882"/>
<path d="M154.295 168.05C154.295 166.961 155.172 166.085 156.261 166.085C157.35 166.085 158.226 166.961 158.226 168.05C158.226 169.139 157.35 170.016 156.261 170.016C155.172 170.016 154.288 169.132 154.295 168.05Z" fill="#29D882"/>
<path d="M154.295 3.56641C154.295 2.47746 155.172 1.60065 156.261 1.60065C157.35 1.60065 158.226 2.47746 158.226 3.56641C158.226 4.65535 157.35 5.53216 156.261 5.53216C155.172 5.53216 154.288 4.64828 154.295 3.56641Z" fill="#29D882"/>
<path d="M123.722 140.495C123.722 139.406 124.599 138.529 125.688 138.529C126.777 138.529 127.654 139.406 127.654 140.495C127.654 141.584 126.777 142.461 125.688 142.461C124.606 142.454 123.729 141.577 123.722 140.495Z" fill="#29D882"/>
<path d="M276.494 140.496C276.494 139.407 277.371 138.53 278.46 138.53C279.548 138.53 280.425 139.407 280.425 140.496C280.425 141.584 279.548 142.461 278.46 142.461C277.378 142.454 276.501 141.577 276.494 140.496Z" fill="#29D882"/>
<path d="M93.1628 140.495C93.1628 139.406 94.0397 138.529 95.1286 138.529C96.2175 138.529 97.0944 139.406 97.0944 140.495C97.0944 141.584 96.2175 142.461 95.1286 142.461C94.0467 142.454 93.1699 141.577 93.1628 140.495Z" fill="#29D882"/>
<path d="M245.934 140.496C245.934 139.407 246.811 138.53 247.9 138.53C248.989 138.53 249.866 139.407 249.866 140.496C249.866 141.584 248.989 142.461 247.9 142.461C246.818 142.454 245.941 141.577 245.934 140.496Z" fill="#29D882"/>
<path d="M62.6032 140.515C62.6032 139.426 63.48 138.549 64.569 138.549C65.6579 138.549 66.5347 139.426 66.5347 140.515C66.5347 141.604 65.6579 142.481 64.569 142.481C63.48 142.481 62.6032 141.604 62.6032 140.515Z" fill="#29D882"/>
<path d="M215.375 140.516C215.375 139.427 216.251 138.55 217.34 138.55C218.429 138.55 219.306 139.427 219.306 140.516C219.306 141.605 218.429 142.481 217.34 142.481C216.251 142.481 215.375 141.605 215.375 140.516Z" fill="#29D882"/>
<path d="M35.4007 141.854C36.1661 141.089 36.1661 139.848 35.4007 139.082C34.6353 138.317 33.3943 138.317 32.6288 139.082C31.8634 139.848 31.8634 141.089 32.6289 141.854C33.3943 142.62 34.6353 142.62 35.4007 141.854Z" fill="#29D882"/>
<path d="M188.172 141.855C188.937 141.089 188.937 139.848 188.172 139.083C187.407 138.317 186.166 138.317 185.4 139.083C184.635 139.848 184.635 141.089 185.4 141.855C186.166 142.62 187.407 142.62 188.172 141.855Z" fill="#29D882"/>
<path d="M4.85688 141.882C5.62231 141.116 5.62231 139.875 4.85688 139.11C4.09145 138.344 2.85045 138.344 2.08503 139.11C1.3196 139.875 1.3196 141.116 2.08503 141.882C2.85045 142.647 4.09145 142.647 4.85688 141.882Z" fill="#29D882"/>
<path d="M157.628 141.882C158.394 141.117 158.394 139.876 157.628 139.11C156.863 138.345 155.622 138.345 154.857 139.11C154.091 139.876 154.091 141.117 154.857 141.882C155.622 142.647 156.863 142.647 157.628 141.882Z" fill="#29D882"/>
<path d="M127.085 114.326C127.85 113.561 127.85 112.32 127.085 111.555C126.319 110.789 125.078 110.789 124.313 111.554C123.548 112.32 123.548 113.561 124.313 114.326C125.078 115.092 126.319 115.092 127.085 114.326Z" fill="#29D882"/>
<path d="M279.867 114.327C280.632 113.561 280.632 112.32 279.867 111.555C279.102 110.79 277.861 110.79 277.095 111.555C276.33 112.32 276.33 113.561 277.095 114.327C277.861 115.092 279.102 115.092 279.867 114.327Z" fill="#29D882"/>
<path d="M96.5412 114.326C97.3066 113.561 97.3066 112.32 96.5412 111.554C95.7758 110.789 94.5348 110.789 93.7694 111.555C93.0039 112.32 93.0039 113.561 93.7694 114.326C94.5348 115.092 95.7758 115.092 96.5412 114.326Z" fill="#29D882"/>
<path d="M249.323 114.327C250.089 113.561 250.089 112.32 249.323 111.555C248.558 110.79 247.317 110.79 246.551 111.555C245.786 112.32 245.786 113.561 246.551 114.327C247.317 115.092 248.558 115.092 249.323 114.327Z" fill="#29D882"/>
<path d="M62.6352 112.95C62.6352 111.861 63.512 110.984 64.6009 110.984C65.6899 110.984 66.5667 111.861 66.5667 112.95C66.5667 114.039 65.6899 114.916 64.6009 114.916C63.512 114.916 62.6352 114.039 62.6352 112.95Z" fill="#29D882"/>
<path d="M215.417 112.951C215.417 111.862 216.294 110.985 217.383 110.985C218.472 110.985 219.349 111.862 219.349 112.951C219.349 114.04 218.472 114.916 217.383 114.916C216.294 114.916 215.417 114.04 215.417 112.951Z" fill="#29D882"/>
<path d="M32.0702 112.914C32.0702 111.825 32.9471 110.948 34.036 110.948C35.1249 110.948 36.0018 111.825 36.0018 112.914C36.0018 114.003 35.1249 114.879 34.036 114.879C32.9471 114.879 32.0702 114.003 32.0702 112.914Z" fill="#29D882"/>
<path d="M184.852 112.914C184.852 111.825 185.729 110.948 186.818 110.948C187.907 110.948 188.784 111.825 188.784 112.914C188.784 114.003 187.907 114.88 186.818 114.88C185.729 114.88 184.852 114.003 184.852 112.914Z" fill="#29D882"/>
<path d="M1.50531 112.941C1.50531 111.852 2.38212 110.975 3.47106 110.975C4.56001 110.975 5.43682 111.852 5.43682 112.941C5.43682 114.03 4.56001 114.907 3.47107 114.907C2.38212 114.907 1.50531 114.03 1.50531 112.941Z" fill="#29D882"/>
<path d="M154.288 112.941C154.288 111.852 155.164 110.976 156.253 110.976C157.342 110.976 158.219 111.852 158.219 112.941C158.219 114.03 157.342 114.907 156.253 114.907C155.164 114.907 154.288 114.03 154.288 112.941Z" fill="#29D882"/>
<path d="M123.744 85.3857C123.744 84.2968 124.621 83.42 125.709 83.42C126.798 83.42 127.675 84.2968 127.675 85.3857C127.675 86.4747 126.798 87.3515 125.709 87.3515C124.621 87.3515 123.737 86.4676 123.744 85.3857Z" fill="#29D882"/>
<path d="M276.547 85.3862C276.547 84.2973 277.424 83.4205 278.513 83.4205C279.602 83.4205 280.479 84.2973 280.479 85.3862C280.479 86.4752 279.602 87.352 278.513 87.352C277.424 87.352 276.54 86.4681 276.547 85.3862Z" fill="#29D882"/>
<path d="M93.1788 85.3857C93.1788 84.2968 94.0556 83.42 95.1445 83.42C96.2335 83.42 97.1103 84.2968 97.1103 85.3857C97.1103 86.4747 96.2335 87.3515 95.1445 87.3515C94.0485 87.3444 93.1717 86.4676 93.1788 85.3857Z" fill="#29D882"/>
<path d="M245.982 85.3862C245.982 84.2973 246.859 83.4205 247.948 83.4205C249.037 83.4205 249.914 84.2973 249.914 85.3862C249.914 86.4752 249.037 87.352 247.948 87.352C246.852 87.3449 245.975 86.4681 245.982 85.3862Z" fill="#29D882"/>
<path d="M62.6138 85.3853C62.6138 84.2963 63.4906 83.4195 64.5796 83.4195C65.6685 83.4195 66.5453 84.2963 66.5453 85.3853C66.5453 86.4742 65.6685 87.351 64.5796 87.351C63.4906 87.351 62.6138 86.4742 62.6138 85.3853Z" fill="#29D882"/>
<path d="M215.417 85.3857C215.417 84.2968 216.294 83.42 217.383 83.42C218.472 83.42 219.349 84.2968 219.349 85.3857C219.349 86.4747 218.472 87.3515 217.383 87.3515C216.294 87.3515 215.417 86.4747 215.417 85.3857Z" fill="#29D882"/>
<path d="M35.4112 86.7453C36.1766 85.9799 36.1766 84.7389 35.4112 83.9734C34.6458 83.208 33.4048 83.208 32.6393 83.9734C31.8739 84.7389 31.8739 85.9799 32.6393 86.7453C33.4048 87.5107 34.6458 87.5107 35.4112 86.7453Z" fill="#29D882"/>
<path d="M188.215 86.7458C188.98 85.9804 188.98 84.7394 188.215 83.9739C187.449 83.2085 186.208 83.2085 185.443 83.9739C184.677 84.7394 184.677 85.9804 185.443 86.7458C186.208 87.5112 187.449 87.5112 188.215 86.7458Z" fill="#29D882"/>
<path d="M1.50518 85.376C1.50518 84.287 2.382 83.4102 3.47094 83.4102C4.55989 83.4102 5.4367 84.287 5.4367 85.376C5.4367 86.4649 4.55989 87.3417 3.47094 87.3417C2.382 87.3417 1.50518 86.4649 1.50518 85.376Z" fill="#29D882"/>
<path d="M154.309 85.3765C154.309 84.2875 155.185 83.4107 156.274 83.4107C157.363 83.4107 158.24 84.2875 158.24 85.3765C158.24 86.4654 157.363 87.3422 156.274 87.3422C155.185 87.3422 154.309 86.4654 154.309 85.3765Z" fill="#29D882"/>
<path d="M123.721 57.8208C123.721 56.7319 124.597 55.855 125.686 55.855C126.775 55.855 127.652 56.7319 127.652 57.8208C127.652 58.9097 126.775 59.7866 125.686 59.7866C124.597 59.7866 123.713 58.9027 123.721 57.8208Z" fill="#29D882"/>
<path d="M276.497 57.8213C276.497 56.7323 277.374 55.8555 278.463 55.8555C279.552 55.8555 280.429 56.7323 280.429 57.8213C280.429 58.9102 279.552 59.787 278.463 59.787C277.374 59.787 276.49 58.9032 276.497 57.8213Z" fill="#29D882"/>
<path d="M93.1556 57.8208C93.1556 56.7319 94.0324 55.855 95.1213 55.855C96.2103 55.855 97.0871 56.7319 97.0871 57.8208C97.0871 58.9097 96.2103 59.7866 95.1213 59.7866C94.0324 59.7866 93.1485 58.9027 93.1556 57.8208Z" fill="#29D882"/>
<path d="M245.932 57.8213C245.932 56.7323 246.809 55.8555 247.898 55.8555C248.987 55.8555 249.864 56.7323 249.864 57.8213C249.864 58.9102 248.987 59.787 247.898 59.787C246.809 59.787 245.925 58.9032 245.932 57.8213Z" fill="#29D882"/>
<path d="M62.5907 57.8261C62.5907 56.7372 63.4675 55.8603 64.5565 55.8603C65.6454 55.8603 66.5222 56.7372 66.5222 57.8261C66.5222 58.915 65.6454 59.7919 64.5565 59.7919C63.4746 59.7848 62.5907 58.9009 62.5907 57.8261Z" fill="#29D882"/>
<path d="M215.368 57.8266C215.368 56.7376 216.244 55.8608 217.333 55.8608C218.422 55.8608 219.299 56.7376 219.299 57.8266C219.299 58.9155 218.422 59.7924 217.333 59.7924C216.251 59.7853 215.368 58.9014 215.368 57.8266Z" fill="#29D882"/>
<path d="M35.3934 59.2014C36.1588 58.4359 36.1588 57.1949 35.3934 56.4295C34.628 55.6641 33.387 55.6641 32.6215 56.4295C31.8561 57.1949 31.8561 58.4359 32.6215 59.2014C33.387 59.9668 34.628 59.9668 35.3934 59.2014Z" fill="#29D882"/>
<path d="M188.17 59.2018C188.936 58.4364 188.936 57.1954 188.17 56.43C187.405 55.6646 186.164 55.6646 185.398 56.43C184.633 57.1954 184.633 58.4364 185.398 59.2018C186.164 59.9673 187.405 59.9673 188.17 59.2018Z" fill="#29D882"/>
<path d="M4.84968 59.2077C5.61511 58.4423 5.61511 57.2013 4.84968 56.4359C4.08425 55.6704 2.84325 55.6704 2.07782 56.4358C1.3124 57.2013 1.3124 58.4423 2.07782 59.2077C2.84325 59.9731 4.08425 59.9731 4.84968 59.2077Z" fill="#29D882"/>
<path d="M157.627 59.2082C158.392 58.4428 158.392 57.2018 157.627 56.4363C156.861 55.6709 155.62 55.6709 154.855 56.4363C154.089 57.2018 154.089 58.4428 154.855 59.2082C155.62 59.9736 156.861 59.9736 157.627 59.2082Z" fill="#29D882"/>
<path d="M127.074 31.653C127.839 30.8876 127.839 29.6466 127.074 28.8812C126.308 28.1157 125.067 28.1157 124.302 28.8812C123.537 29.6466 123.537 30.8876 124.302 31.653C125.067 32.4184 126.308 32.4184 127.074 31.653Z" fill="#29D882"/>
<path d="M279.845 31.6535C280.611 30.8881 280.611 29.6471 279.845 28.8816C279.08 28.1162 277.839 28.1162 277.073 28.8816C276.308 29.6471 276.308 30.8881 277.073 31.6535C277.839 32.4189 279.08 32.4189 279.845 31.6535Z" fill="#29D882"/>
<path d="M96.5301 31.653C97.2955 30.8876 97.2955 29.6466 96.5301 28.8812C95.7647 28.1157 94.5237 28.1157 93.7582 28.8812C92.9928 29.6466 92.9928 30.8876 93.7582 31.653C94.5237 32.4184 95.7647 32.4184 96.5301 31.653Z" fill="#29D882"/>
<path d="M249.302 31.6535C250.067 30.8881 250.067 29.6471 249.302 28.8816C248.536 28.1162 247.295 28.1162 246.53 28.8816C245.764 29.6471 245.764 30.8881 246.53 31.6535C247.295 32.4189 248.536 32.4189 249.302 31.6535Z" fill="#29D882"/>
<path d="M62.6241 30.2665C62.6241 29.1776 63.501 28.3008 64.5899 28.3008C65.6788 28.3008 66.5557 29.1776 66.5557 30.2665C66.5557 31.3555 65.6789 32.2323 64.5899 32.2323C63.508 32.2252 62.6312 31.3484 62.6241 30.2665Z" fill="#29D882"/>
<path d="M215.396 30.267C215.396 29.1781 216.272 28.3013 217.361 28.3013C218.45 28.3013 219.327 29.1781 219.327 30.267C219.327 31.356 218.45 32.2328 217.361 32.2328C216.28 32.2257 215.403 31.3489 215.396 30.267Z" fill="#29D882"/>
<path d="M32.0646 30.267C32.0646 29.1781 32.9414 28.3013 34.0303 28.3013C35.1193 28.3013 35.9961 29.1781 35.9961 30.267C35.9961 31.356 35.1193 32.2328 34.0303 32.2328C32.9485 32.2257 32.0646 31.3418 32.0646 30.267Z" fill="#29D882"/>
<path d="M184.836 30.2675C184.836 29.1786 185.713 28.3018 186.802 28.3018C187.891 28.3018 188.768 29.1786 188.768 30.2675C188.768 31.3565 187.891 32.2333 186.802 32.2333C185.72 32.2262 184.836 31.3423 184.836 30.2675Z" fill="#29D882"/>
<path d="M1.50494 30.2671C1.50494 29.1781 2.38175 28.3013 3.4707 28.3013C4.55964 28.3013 5.43645 29.1781 5.43645 30.2671C5.43645 31.356 4.55964 32.2328 3.4707 32.2328C2.38175 32.2328 1.49787 31.349 1.50494 30.2671Z" fill="#29D882"/>
<path d="M154.276 30.2676C154.276 29.1786 155.153 28.3018 156.242 28.3018C157.331 28.3018 158.208 29.1786 158.208 30.2676C158.208 31.3565 157.331 32.2333 156.242 32.2333C155.153 32.2333 154.269 31.3495 154.276 30.2676Z" fill="#29D882"/>
</g>
</svg>
