<svg width="16" height="16" viewBox="0 0 16 16" fill="none" xmlns="http://www.w3.org/2000/svg">
<path d="M8 0C3.595 0 0 3.59531 0 8C0 12.405 3.59531 16 8 16C12.405 16 16 12.4047 16 8C16 3.595 12.4047 0 8 0ZM13.4263 3.48469C14.425 4.68281 15.0347 6.21562 15.0609 7.8875C13.8091 7.59469 12.4187 7.575 11.0028 7.83313C10.6344 7.90031 10.2659 7.98563 9.89969 8.08813C9.77781 7.75656 9.64844 7.42781 9.51094 7.10219C9.37063 6.77 9.2225 6.44344 9.0675 6.12156C10.7547 5.47719 12.5828 4.51781 13.4263 3.48469ZM8 0.9375C9.83813 0.9375 11.5141 1.64344 12.7719 2.79813C12.2812 3.46719 10.8831 4.44125 8.64 5.28125C7.85688 3.82312 6.91781 2.48313 5.83281 1.27813C6.51594 1.05719 7.24438 0.9375 8 0.9375ZM4.90469 1.65313C6.01125 2.83844 6.96313 4.16219 7.74719 5.59219C5.41344 6.3475 3.05062 6.65562 1.10781 6.45656C1.58094 4.3425 3.00437 2.58344 4.90469 1.65313ZM0.9375 8C0.9375 7.7925 0.947188 7.58719 0.964688 7.38438C1.39344 7.42969 1.84063 7.4525 2.30281 7.4525C4.12563 7.4525 6.17344 7.10187 8.18437 6.43594C8.49125 7.06406 8.76719 7.71031 9.01062 8.3725C8.22656 8.65438 7.46344 9.01281 6.74687 9.43937C4.99 10.4853 3.70469 11.8309 3.17156 13.1491C1.7975 11.8597 0.9375 10.0284 0.9375 8ZM8 15.0625C6.49094 15.0625 5.09094 14.5866 3.94187 13.7769C4.29812 12.5731 5.50313 11.2709 7.22656 10.245C7.83375 9.88313 8.54375 9.54219 9.31656 9.265C9.86438 10.9869 10.2 12.8044 10.3066 14.6753C9.58344 14.9259 8.8075 15.0625 8 15.0625ZM11.2209 14.2844C11.0909 12.4619 10.7516 10.6875 10.2069 8.98312C11.7256 8.56563 13.4125 8.42562 15.0122 8.84062C14.7291 11.2159 13.2628 13.2334 11.2209 14.2844Z" fill="white"/>
</svg>
