<svg width="29" height="35" viewBox="0 0 29 35" fill="none" xmlns="http://www.w3.org/2000/svg">
<path d="M26.9995 14.6818C26.9995 24.5455 14.4995 33 14.4995 33C14.4995 33 1.99951 24.5455 1.99951 14.6818C1.99951 11.3184 3.31647 8.09272 5.66068 5.71442C8.00488 3.33612 11.1843 2 14.4995 2C17.8147 2 20.9941 3.33612 23.3383 5.71442C25.6825 8.09272 26.9995 11.3184 26.9995 14.6818Z" stroke="#29D882" stroke-width="3" stroke-linecap="round" stroke-linejoin="round"/>
<path d="M14.4997 18.9096C16.8009 18.9096 18.6663 17.017 18.6663 14.6824C18.6663 12.3477 16.8009 10.4551 14.4997 10.4551C12.1985 10.4551 10.333 12.3477 10.333 14.6824C10.333 17.017 12.1985 18.9096 14.4997 18.9096Z" stroke="#29D882" stroke-width="3" stroke-linecap="round" stroke-linejoin="round"/>
</svg>
