<svg width="31" height="31" viewBox="0 0 31 31" fill="none" xmlns="http://www.w3.org/2000/svg">
<path d="M28.9987 22.2147V26.2793C29.0002 26.6566 28.9228 27.0301 28.7713 27.3758C28.6198 27.7216 28.3977 28.0319 28.1191 28.287C27.8405 28.5421 27.5116 28.7363 27.1534 28.8572C26.7953 28.9781 26.4158 29.023 26.0392 28.989C21.8618 28.536 17.8491 27.1114 14.3235 24.8296C11.0435 22.7494 8.26252 19.974 6.17822 16.7004C3.88392 13.1658 2.45614 9.14161 2.01053 4.95373C1.97661 4.57907 2.02122 4.20146 2.14153 3.84495C2.26185 3.48843 2.45523 3.16083 2.70935 2.88299C2.96348 2.60515 3.27279 2.38316 3.61759 2.23117C3.96239 2.07917 4.33512 2.00049 4.71206 2.00013H8.78472C9.44355 1.99366 10.0823 2.2265 10.5818 2.65525C11.0813 3.084 11.4076 3.67941 11.4998 4.3305C11.6717 5.63125 11.9905 6.90843 12.4501 8.13766C12.6328 8.6226 12.6723 9.14963 12.564 9.6563C12.4557 10.163 12.2042 10.628 11.8392 10.9964L10.1151 12.7171C12.0477 16.1091 14.8617 18.9176 18.2604 20.8463L19.9845 19.1256C20.3536 18.7613 20.8196 18.5103 21.3273 18.4022C21.835 18.2942 22.3631 18.3336 22.849 18.5159C24.0806 18.9746 25.3603 19.2928 26.6637 19.4643C27.3231 19.5572 27.9254 19.8887 28.3559 20.3958C28.7864 20.9029 29.0152 21.5502 28.9987 22.2147Z" stroke="#29D882" stroke-width="3" stroke-linecap="round" stroke-linejoin="round"/>
</svg>
