<svg width="16" height="16" viewBox="0 0 16 16" fill="none" xmlns="http://www.w3.org/2000/svg">
<path d="M11.352 0H4.64751C2.08472 0 -0.000244141 2.08497 -0.000244141 4.64775V11.3523C-0.000244141 13.915 2.08472 16 4.64751 16H11.352C13.9148 16 15.9998 13.915 15.9998 11.3523V4.64775C15.9998 2.08497 13.9148 0 11.352 0ZM14.7498 11.3523C14.7498 13.2258 13.2255 14.75 11.352 14.75H4.64751C2.77397 14.75 1.24976 13.2258 1.24976 11.3523V4.64775C1.24976 2.77422 2.77397 1.25 4.64751 1.25H11.352C13.2255 1.25 14.7498 2.77422 14.7498 4.64775V11.3523Z" fill="white"/>
<path d="M7.99976 3.6875C5.62182 3.6875 3.68726 5.62206 3.68726 8C3.68726 10.3779 5.62182 12.3125 7.99976 12.3125C10.3777 12.3125 12.3123 10.3779 12.3123 8C12.3123 5.62206 10.3777 3.6875 7.99976 3.6875ZM7.99976 11.0625C6.3111 11.0625 4.93726 9.68866 4.93726 8C4.93726 6.31134 6.3111 4.9375 7.99976 4.9375C9.68841 4.9375 11.0623 6.31134 11.0623 8C11.0623 9.68866 9.68841 11.0625 7.99976 11.0625Z" fill="white"/>
<path d="M12.3748 4.25C12.7199 4.25 12.9998 3.97018 12.9998 3.625C12.9998 3.27982 12.7199 3 12.3748 3C12.0296 3 11.7498 3.27982 11.7498 3.625C11.7498 3.97018 12.0296 4.25 12.3748 4.25Z" fill="white"/>
</svg>
