<svg width="75" height="75" viewBox="0 0 75 75" fill="none" xmlns="http://www.w3.org/2000/svg">
<path d="M74.9999 37.5001C74.9999 35.7188 74.1192 34.1171 72.7009 33.3192L67.1167 30.1815L72.7009 27.044C72.7011 27.0438 72.7015 27.0437 72.7015 27.0437C74.1195 26.2461 75.0002 24.6443 75.0002 22.863C75.0002 21.0821 74.1193 19.4802 72.7012 18.6823L41.1752 0.969014C38.8737 -0.323032 36.1259 -0.323032 33.8239 0.969178L2.29848 18.6832C0.880809 19.4804 2.92202e-07 21.0821 2.92202e-07 22.8632C2.92202e-07 24.6444 0.880663 26.2461 2.29892 27.044L7.88304 30.1815L2.29819 33.3195C0.880663 34.1171 2.92202e-07 35.7188 2.92202e-07 37.5001C2.92202e-07 39.2813 0.880663 40.883 2.29892 41.6807L7.88304 44.8184L2.29936 47.9558C0.881834 48.7517 0.000586229 50.3529 2.92202e-07 52.1343C-0.000585644 53.9167 0.880077 55.5194 2.29892 56.3174L33.8245 74.0311C34.9753 74.6772 36.2372 75 37.4998 75C38.7623 75 40.0249 74.6769 41.1758 74.0309L72.7014 56.3173C74.1196 55.5197 75.0004 53.9169 74.9999 52.1345C74.9993 50.353 74.118 48.7518 72.7009 47.9564L67.1167 44.8187L72.7015 41.6807C74.1192 40.883 74.9999 39.2813 74.9999 37.5001ZM3.84155 23.5787C3.49892 23.386 3.44794 23.0477 3.44794 22.8633C3.44794 22.679 3.49921 22.3407 3.84096 22.1484L35.3655 4.43543C36.0339 4.06011 36.7671 3.87278 37.5002 3.87278C38.2331 3.87278 38.9661 4.06028 39.6341 4.43527L71.1585 22.1481C71.5008 22.3407 71.5521 22.679 71.5521 22.8633C71.5521 23.0477 71.5011 23.386 71.1585 23.5787L39.6345 41.2913C38.2978 42.0416 36.702 42.0416 35.3661 41.2914L3.84155 23.5787ZM71.1595 51.422C71.5008 51.6136 71.5519 51.9512 71.5519 52.1358C71.5521 52.3206 71.5009 52.6596 71.1589 52.8518L39.6343 70.5648C38.2977 71.3151 36.7019 71.3153 35.3659 70.565L3.84155 52.852C3.49892 52.6592 3.4478 52.3205 3.44794 52.1356C3.44794 51.9514 3.49892 51.6136 3.84096 51.4217L11.7382 46.9844L33.8245 59.394C34.9753 60.0401 36.2372 60.363 37.4996 60.363C38.7622 60.363 40.0247 60.0398 41.1757 59.3939L63.2614 46.9844L71.1595 51.422ZM71.1588 38.2151L39.6343 55.9281C38.2977 56.6784 36.7019 56.6786 35.3659 55.9283L3.84155 38.2155C3.49892 38.0229 3.44794 37.6846 3.44794 37.5002C3.44794 37.3155 3.49892 36.9776 3.84096 36.7851L11.7382 32.3478L33.8245 44.7575C34.9751 45.4036 36.2374 45.7264 37.4996 45.7264C38.7619 45.7264 40.0246 45.4034 41.1755 44.7572L63.2615 32.3477L71.1582 36.7846C71.5008 36.9774 71.5518 37.3155 71.5518 37.5001C71.5519 37.6844 71.5008 38.0227 71.1588 38.2151Z" fill="#29D882"/>
</svg>
