<svg width="75" height="75" viewBox="0 0 75 75" fill="none" xmlns="http://www.w3.org/2000/svg">
<path d="M8.35525 24.3391H1.81692C0.813404 24.3391 0 25.1514 0 26.1535C0 27.1556 0.813404 27.9678 1.81692 27.9678H8.35511C9.35877 27.9678 10.1722 27.1556 10.1722 26.1535C10.1722 25.1514 9.35877 24.3391 8.35525 24.3391Z" fill="white"/>
<path d="M73.1831 24.3391H66.6447C65.6414 24.3391 64.8278 25.1514 64.8278 26.1535C64.8278 27.1556 65.6414 27.9678 66.6447 27.9678H73.1831C74.1864 27.9678 75 27.1556 75 26.1535C75 25.1514 74.1864 24.3391 73.1831 24.3391Z" fill="white"/>
<path d="M15.8408 47.7821C15.1313 47.0736 13.9809 47.0736 13.2712 47.7821L8.51547 52.5312C7.80592 53.2397 7.80592 54.3885 8.51547 55.0972C8.87031 55.4515 9.33533 55.6286 9.80019 55.6286C10.2651 55.6286 10.7302 55.4515 11.0849 55.0972L15.8408 50.3481C16.5503 49.6397 16.5503 48.4908 15.8408 47.7821Z" fill="white"/>
<path d="M63.1583 0.531412C62.4486 -0.177137 61.2986 -0.177137 60.5887 0.531412L55.9633 5.15038C55.2537 5.85893 55.2537 7.00782 55.9633 7.71622C56.3182 8.07027 56.7833 8.24752 57.2481 8.24752C57.7133 8.24752 58.178 8.07027 58.5328 7.71607L63.1582 3.09725C63.8677 2.3887 63.8677 1.23981 63.1583 0.531412Z" fill="white"/>
<path d="M19.0342 5.14777L14.4112 0.531436C13.7017 -0.17682 12.5512 -0.17682 11.8416 0.531436C11.1321 1.23999 11.1321 2.38887 11.8416 3.09742L16.4646 7.7139C16.8195 8.0681 17.2845 8.24535 17.7493 8.24535C18.2142 8.24535 18.6794 8.0681 19.0341 7.7139C19.7436 7.00535 19.7436 5.85647 19.0342 5.14777Z" fill="white"/>
<path d="M66.4842 52.5319L61.7461 47.8C61.0364 47.0914 59.8863 47.0914 59.1765 47.8001C58.467 48.5086 58.467 49.6575 59.1765 50.3659L63.9148 55.0976C64.2696 55.4519 64.7347 55.629 65.1995 55.629C65.6647 55.629 66.1294 55.4518 66.4842 55.0976C67.1938 54.3892 67.1938 53.2403 66.4842 52.5319Z" fill="white"/>
<path d="M37.5 4.92725C24.9362 4.92725 14.7149 15.6038 14.7149 28.7273C14.7149 34.8284 16.9034 41.3956 20.7194 46.745C23.6502 50.8531 25.1991 55.4241 25.1991 59.9638V71.3713C25.1991 73.3722 26.8293 75.0001 28.8329 75.0001H46.1673C48.171 75.0001 49.8012 73.3722 49.8012 71.3713V59.9638C49.8012 55.4242 51.3501 50.8531 54.2805 46.745C58.0966 41.3958 60.2852 34.8284 60.2852 28.7273C60.2849 15.6038 50.0636 4.92725 37.5 4.92725ZM46.167 71.3716H28.8326V68.9984H37.4999C38.5034 68.9984 39.317 68.1862 39.317 67.1841C39.317 66.1819 38.5034 65.3697 37.4999 65.3697H28.8326V62.9966H46.1675L46.1695 71.3713C46.1694 71.3716 46.1686 71.3716 46.167 71.3716ZM34.952 37.5209L32.5222 32.3373H42.4776L40.0481 37.5209C39.9524 37.725 39.8957 37.9452 39.8806 38.1699L38.4716 59.3679H36.5284L35.1194 38.1699C35.1044 37.9452 35.0475 37.725 34.952 37.5209ZM51.3207 44.6397C48.0755 49.1889 46.3027 54.2686 46.1745 59.3679H42.1135L43.4837 38.7502L46.9795 31.2919C47.243 30.73 47.2006 30.0725 46.867 29.5489C46.5336 29.0255 45.9554 28.7084 45.334 28.7084H29.6657C29.0443 28.7084 28.4662 29.0255 28.1326 29.5489C27.7992 30.0723 27.7567 30.7299 28.0201 31.2918L31.5161 38.7501L32.8863 59.3677H28.825C28.6968 54.2683 26.9242 49.1888 23.6788 44.6395C20.341 39.9605 18.3483 34.0119 18.3483 28.7271C18.3483 17.6045 26.9396 8.55583 37.4996 8.55583C48.0596 8.55583 56.6509 17.6045 56.6509 28.7271C56.6512 34.0122 54.6586 39.9608 51.3207 44.6397Z" fill="white"/>
</svg>
