<svg width="124" height="50" viewBox="0 0 124 50" fill="none" xmlns="http://www.w3.org/2000/svg">
<path d="M0 0H40C45.5228 0 50 4.47715 50 10V44C50 47.3137 47.3137 50 44 50H6C2.68629 50 0 47.3137 0 44V0Z" fill="#29D882"/>
<path d="M11 37.4824L17.356 12H25.8365L32.1579 37.4824H26.6655L25.3183 31.582H17.8569L16.4924 37.4824H11ZM18.8241 27.4068H24.3684L21.6049 15.347L18.8241 27.4068Z" fill="white"/>
<path d="M36.1674 38C35.3729 38 34.6993 37.724 34.1466 37.1719C33.5939 36.6198 33.3176 35.9469 33.3176 35.1533C33.3176 34.3712 33.5939 33.704 34.1466 33.152C34.6993 32.5999 35.3729 32.3238 36.1674 32.3238C36.9504 32.3238 37.6183 32.5999 38.171 33.152C38.7236 33.704 39 34.3712 39 35.1533C39 35.9469 38.7236 36.6198 38.171 37.1719C37.6183 37.724 36.9504 38 36.1674 38Z" fill="white"/>
<path d="M66.2041 35.6824L67.9983 30.3359H76.1729L77.9777 35.6824H82.1819L74.5168 14H69.6545L62 35.6824H66.2041ZM69.0599 27.1809L72.0007 18.4466H72.1705L75.1113 27.1809H69.0599Z" fill="#21272F"/>
<path d="M88.7189 14H84.8758V35.6824H88.7189V14Z" fill="#21272F"/>
<path d="M99.8901 36C103.691 36 106.302 34.1473 106.982 31.3205L103.393 30.9182C102.873 32.2945 101.599 33.0144 99.9431 33.0144C97.4589 33.0144 95.8134 31.384 95.7815 28.5996H107.141V27.4244C107.141 21.718 103.701 19.2089 99.6884 19.2089C95.0171 19.2089 91.9702 22.6285 91.9702 27.6468C91.9702 32.7498 94.9747 36 99.8901 36ZM95.7921 26.0164C95.9089 23.9413 97.4483 22.1944 99.7414 22.1944C101.95 22.1944 103.436 23.8037 103.457 26.0164H95.7921Z" fill="#21272F"/>
<path d="M113.214 19.4206H109.137L113.978 27.5515L109.01 35.6824H113.086L116.505 29.8277L119.955 35.6824H124L119 27.5515L123.915 19.4206H119.849L116.505 25.4235L113.214 19.4206Z" fill="#21272F"/>
</svg>
