<svg width="75" height="75" viewBox="0 0 75 75" fill="none" xmlns="http://www.w3.org/2000/svg">
<path d="M73.506 0H1.49402C0.669024 0 0 0.724246 0 1.6177V45.6261V56.0347C0 56.9281 0.669024 57.6524 1.49402 57.6524H36.006V61.9039H24.9359C24.1109 61.9039 23.4418 62.6281 23.4418 63.5216C23.4418 64.415 24.1109 65.1393 24.9359 65.1393H45.1972V66.2607V73.3823C45.1972 74.2758 45.8662 75 46.6912 75H66.0856C66.9106 75 67.5796 74.2758 67.5796 73.3823V66.2607V57.6524H73.506C74.331 57.6524 75 56.9281 75 56.0347V45.6261V1.6177C75 0.724408 74.331 0 73.506 0ZM45.1972 61.904H38.994V57.6526H45.1972V61.904ZM45.1972 54.4171H2.98805V47.2439H45.1972V54.4171ZM64.5916 71.7649H48.1853V67.8787H64.5916V71.7649ZM64.5916 45.6262V56.0348V64.6431H48.1853V56.0348V45.6262V38.2961H64.5916V45.6262ZM72.012 54.4171H67.5796V47.2439H72.012V54.4171ZM72.012 44.0083H67.5796V36.6784C67.5796 35.7849 66.9106 35.0607 66.0856 35.0607H46.6912C45.8662 35.0607 45.1972 35.7849 45.1972 36.6784V44.0085H2.98805V3.23541H72.012V44.0083Z" fill="#29D882"/>
</svg>
